<?xml version="1.0" encoding="utf-8"?>
<!-- Generator: Adobe Illustrator 27.5.0, SVG Export Plug-In . SVG Version: 6.00 Build 0)  -->
<svg version="1.1" xmlns="http://www.w3.org/2000/svg" xmlns:xlink="http://www.w3.org/1999/xlink" x="0px" y="0px"
	 viewBox="0 0 800 800" style="enable-background:new 0 0 800 800;" xml:space="preserve">
<g id="Layer_1" style="display:none;">
	<radialGradient id="SVGID_1_" cx="400" cy="400" r="543.116" gradientUnits="userSpaceOnUse">
		<stop  offset="0" style="stop-color:#FBFBFB"/>
		<stop  offset="1" style="stop-color:#D5DDD9"/>
	</radialGradient>
	<rect style="display:inline;fill:url(#SVGID_1_);" width="800" height="800"/>
</g>
<g id="Layer_2">
	<g>
		<g>
			<g>
				<g>
					
						<radialGradient id="SVGID_00000116928702415589188960000000097166082497466555_" cx="395.8793" cy="329.2475" r="181.7779" gradientUnits="userSpaceOnUse">
						<stop  offset="0" style="stop-color:#8BC53F"/>
						<stop  offset="0.0764" style="stop-color:#84C340"/>
						<stop  offset="0.6988" style="stop-color:#4DB847"/>
						<stop  offset="1" style="stop-color:#37B34A"/>
					</radialGradient>
					<path style="fill-rule:evenodd;clip-rule:evenodd;fill:url(#SVGID_00000116928702415589188960000000097166082497466555_);" d="
						M356.476,327.271c0,0-17.416-24.037-11.35-44.234c14.188-46.904,83.011-32.939,106.27-39.782
						c10.814-3.175,13.825-8.286,16.971-12.353c-12.565-15.839-56.686-36.427-93.03-10.96c-8.623,6.121-15.134,13.411-21.979,21.422
						c7.123-17.026,28.823-34.552,49.354-39.226c13.519-3.004,26.597-1.613,39.335,2.224c12.911,3.84,19.587,8.011,31.103,14.132
						c1.503-22.144-26.65-42.842-48.127-45.344c-86.409-10.126-122.962,89.135-80.509,141.935
						C348.13,319.535,356.476,327.271,356.476,327.271L356.476,327.271z"/>
				</g>
				<g>
					
						<radialGradient id="SVGID_00000011015347845840640230000003954609092810940297_" cx="395.8788" cy="329.248" r="181.7803" gradientUnits="userSpaceOnUse">
						<stop  offset="0" style="stop-color:#37B34A"/>
						<stop  offset="0.4464" style="stop-color:#1D9C46"/>
						<stop  offset="1" style="stop-color:#008341"/>
					</radialGradient>
					<path style="fill-rule:evenodd;clip-rule:evenodd;fill:url(#SVGID_00000011015347845840640230000003954609092810940297_);" d="
						M394.099,277.841c0,0,24.037-17.415,44.232-11.35c46.905,14.188,32.939,83.013,39.781,106.272
						c3.177,10.813,8.288,13.825,12.355,16.971c15.838-12.564,36.426-56.686,10.96-93.031c-6.122-8.624-13.413-15.135-21.423-21.979
						c17.026,7.122,34.554,28.822,39.226,49.354c3.005,13.52,1.613,26.596-2.227,39.336c-3.837,12.911-8.01,19.586-14.129,31.103
						c22.144,1.503,42.841-26.652,45.343-48.127c10.128-86.411-89.133-122.966-141.934-80.511
						C401.831,269.497,394.099,277.841,394.099,277.841L394.099,277.841z"/>
				</g>
				<g>
					
						<radialGradient id="SVGID_00000113322740886033579560000000806333825918084782_" cx="395.8788" cy="329.248" r="181.7806" gradientUnits="userSpaceOnUse">
						<stop  offset="0" style="stop-color:#8BC53F"/>
						<stop  offset="0.0764" style="stop-color:#84C340"/>
						<stop  offset="0.6988" style="stop-color:#4DB847"/>
						<stop  offset="1" style="stop-color:#37B34A"/>
					</radialGradient>
					<path style="fill-rule:evenodd;clip-rule:evenodd;fill:url(#SVGID_00000113322740886033579560000000806333825918084782_);" d="
						M443.525,315.466c0,0,17.416,24.037,11.351,44.234c-14.19,46.905-83.01,32.939-106.272,39.782
						c-10.812,3.177-13.823,8.286-16.968,12.353c12.563,15.84,56.687,36.428,93.027,10.961c8.625-6.121,15.137-13.411,21.98-21.422
						c-7.123,17.026-28.823,34.552-49.353,39.228c-13.52,3.004-26.596,1.611-39.336-2.227c-12.91-3.839-19.587-8.011-31.104-14.132
						c-1.503,22.145,26.653,42.842,48.129,45.345c86.408,10.126,122.963-89.135,80.51-141.936
						C451.871,323.201,443.525,315.466,443.525,315.466L443.525,315.466z"/>
				</g>
				<g>
					
						<radialGradient id="SVGID_00000060720713254949352930000009108358500261355682_" cx="395.8791" cy="329.2474" r="181.7804" gradientUnits="userSpaceOnUse">
						<stop  offset="0" style="stop-color:#37B34A"/>
						<stop  offset="0.4464" style="stop-color:#1D9C46"/>
						<stop  offset="1" style="stop-color:#008341"/>
					</radialGradient>
					<path style="fill-rule:evenodd;clip-rule:evenodd;fill:url(#SVGID_00000060720713254949352930000009108358500261355682_);" d="
						M405.902,364.895c0,0-24.037,17.415-44.232,11.349c-46.904-14.189-32.939-83.013-39.782-106.273
						c-3.17-10.798-8.266-13.811-12.352-16.971c-15.839,12.565-36.427,56.685-10.961,93.03c6.121,8.625,13.411,15.135,21.421,21.98
						c-17.027-7.122-34.551-28.822-39.226-49.355c-3.004-13.52-1.612-26.595,2.225-39.336c3.841-12.911,8.011-19.586,14.132-31.104
						c-22.142-1.503-42.841,26.652-45.345,48.128c-10.124,86.41,89.134,122.966,141.935,80.512
						C398.169,373.24,405.902,364.895,405.902,364.895L405.902,364.895z"/>
				</g>
			</g>
		</g>
		<g>
			<text transform="matrix(1 0 0 1 147.8203 573.9893)"><tspan x="0" y="0" style="fill:#1E9B44; font-family:'OptimusPrincepsSemiBold'; font-size:90.1621px; letter-spacing:4;">Eco</tspan><tspan x="147.774" y="0" style="fill:#009345; font-family:'OptimusPrincepsSemiBold'; font-size:90.1621px; letter-spacing:4;"> </tspan><tspan x="171.396" y="0" style="fill:#3A392F; font-family:'OptimusPrincepsSemiBold'; font-size:90.1621px; letter-spacing:4;">Circle</tspan></text>
			
				<text transform="matrix(1 0 0 1 179.9971 617.8438)" style="fill:#3A392F; font-family:'OptimusPrinceps'; font-size:39.5369px; letter-spacing:1;">Your company slogan</text>
		</g>
	</g>
</g>
</svg>
